<svg width="28" height="24" viewBox="0 0 28 24" fill="none" xmlns="http://www.w3.org/2000/svg">
<g clip-path="url(#clip0_593_1121)">
<path d="M10 4H18V2H10V4ZM4.5 4V24H3.5C2.54167 24 1.71875 23.6562 1.03125 22.9688C0.34375 22.2812 0 21.4583 0 20.5V7.5C0 6.54167 0.34375 5.71875 1.03125 5.03125C1.71875 4.34375 2.54167 4 3.5 4H4.5ZM22 4V24H6V4H8V1.5C8 1.08333 8.14583 0.729167 8.4375 0.4375C8.72917 0.145833 9.08333 0 9.5 0H18.5C18.9167 0 19.2708 0.145833 19.5625 0.4375C19.8542 0.729167 20 1.08333 20 1.5V4H22ZM28 7.5V20.5C28 21.4583 27.6562 22.2812 26.9688 22.9688C26.2812 23.6562 25.4583 24 24.5 24H23.5V4H24.5C25.4583 4 26.2812 4.34375 26.9688 5.03125C27.6562 5.71875 28 6.54167 28 7.5Z" fill="#23538F"/>
</g>
<defs>
<clipPath id="clip0_593_1121">
<rect width="28" height="24" fill="white"/>
</clipPath>
</defs>
</svg>
