<svg width="24" height="21" viewBox="0 0 24 21" fill="none" xmlns="http://www.w3.org/2000/svg">
<g clip-path="url(#clip0_356_342)">
<path d="M8.57143 3.42857H15.4286V1.71429H8.57143V3.42857ZM3.85714 3.42857V20.5714H3C2.17857 20.5714 1.47321 20.2768 0.883929 19.6875C0.294643 19.0982 0 18.3929 0 17.5714V6.42857C0 5.60714 0.294643 4.90179 0.883929 4.3125C1.47321 3.72321 2.17857 3.42857 3 3.42857H3.85714ZM18.8571 3.42857V20.5714H5.14286V3.42857H6.85714V1.28571C6.85714 0.928571 6.98214 0.625 7.23214 0.375C7.48214 0.125 7.78571 0 8.14286 0H15.8571C16.2143 0 16.5179 0.125 16.7679 0.375C17.0179 0.625 17.1429 0.928571 17.1429 1.28571V3.42857H18.8571ZM24 6.42857V17.5714C24 18.3929 23.7054 19.0982 23.1161 19.6875C22.5268 20.2768 21.8214 20.5714 21 20.5714H20.1429V3.42857H21C21.8214 3.42857 22.5268 3.72321 23.1161 4.3125C23.7054 4.90179 24 5.60714 24 6.42857Z" fill="url(#paint0_linear_356_342)"/>
</g>
<defs>
<linearGradient id="paint0_linear_356_342" x1="12" y1="0" x2="12" y2="20.5714" gradientUnits="userSpaceOnUse">
<stop stop-color="#225AE3"/>
<stop offset="1" stop-color="#13327D"/>
</linearGradient>
<clipPath id="clip0_356_342">
<rect width="24" height="20.5714" fill="white"/>
</clipPath>
</defs>
</svg>
